# File created by Blade
# Date/Time:  Tue Sep 30 19:36:22 2014
#---------------------------------------------------------
:version 1.10
:name HOM
:units
  mass 1.0
  length 1.000000
  angle deg
:documentation
     Acclaim Skeleton File
:root
   axis xyz
   order TX TY TZ RX RY RZ
   position 0.000000 0.000000 0.000000
   orientation 0 0 0
:bonedata
   begin
      id 1
      name Spine_dum
      direction 0.000000 1.000000 0.000000
      length 3.241213
      axis 0.0 0.0 0.0 xyz
   end
   begin
      id 2
      name LeftUpLeg_dum
      direction 1.000000 0.000000 0.000000
      length 3.434019
      axis 0.0 0.0 0.0 xyz
   end
   begin
      id 3
      name RightUpLeg_dum
      direction -1.000000 0.000000 0.000000
      length 3.434019
      axis 0.0 0.0 0.0 xyz
   end
   begin
      id 4
      name Spine
      direction 0.000000 1.000000 0.000000
      length 0.000000
      axis 0.0 0.0 0.0 xyz
      dof rx ry rz
   end
   begin
      id 5
      name Spine_dum1
      direction 0.000000 1.000000 0.000000
      length 18.382958
      axis 0.0 0.0 0.0 xyz
   end
   begin
      id 6
      name Spine_dum2
      direction 0.000000 1.000000 0.000000
      length 12.828261
      axis 0.0 0.0 0.0 xyz
   end
   begin
      id 7
      name Spine_dum3
      direction 0.000000 1.000000 0.000000
      length 12.828261
      axis 0.0 0.0 0.0 xyz
   end
   begin
      id 8
      name Head
      direction 0.000000 1.000000 0.000000
      length 4.527550
      axis 0.0 0.0 0.0 xyz
      dof rx ry rz
   end
   begin
      id 9
      name LeftShoulder
      direction 1.000000 0.000000 0.000000
      length 7.748055
      axis 0.0 0.0 -90.0 xyz
      dof rx ry rz
   end
   begin
      id 10
      name LeftArm
      direction 1.000000 0.000000 0.000000
      length 10.635614
      axis 0.0 0.0 -90.0 xyz
      dof rx ry rz
   end
   begin
      id 11
      name LeftForeArm
      direction 1.000000 0.000000 0.000000
      length 8.346755
      axis 0.0 0.0 -90.0 xyz
      dof ry rz rx
   end
   begin
      id 12
      name LeftHand
      direction 0.000000 0.000000 0.000000
      length 0.000000
      axis 0.0 0.0 -90.0 xyz
      dof rx ry rz
   end
   begin
      id 13
      name LeftHand_dum1
      direction 0.000000 0.000000 0.000000
      length 0.000000
      axis 0.0 0.0 -90.0 xyz
   end
   begin
      id 14
      name LeftHand_dum2
      direction 1.000000 0.000000 0.000000
      length 3.937000
      axis 0.0 0.0 -90.0 xyz
   end
   begin
      id 15
      name LeftHandThumb1
      direction 0.000000 0.000000 1.000000
      length 3.937000
      axis 0.0 0.0 -90.0 xyz
      dof rx rz ry
   end
   begin
      id 16
      name RightShoulder
      direction -1.000000 0.000000 0.000000
      length 7.748055
      axis 0.0 0.0 90.0 xyz
      dof rx ry rz
   end
   begin
      id 17
      name RightArm
      direction -1.000000 0.000000 0.000000
      length 10.635614
      axis 0.0 0.0 90.0 xyz
      dof rx ry rz
   end
   begin
      id 18
      name RightForeArm
      direction -1.000000 0.000000 0.000000
      length 8.346755
      axis 0.0 0.0 90.0 xyz
      dof ry rz rx
   end
   begin
      id 19
      name RightHand
      direction 0.000000 0.000000 0.000000
      length 0.000000
      axis 0.0 0.0 90.0 xyz
      dof rx ry rz
   end
   begin
      id 20
      name RightHand_dum1
      direction 0.000000 0.000000 0.000000
      length 0.000000
      axis 0.0 0.0 90.0 xyz
   end
   begin
      id 21
      name RightHand_dum2
      direction -1.000000 0.000000 0.000000
      length 3.937000
      axis 0.0 0.0 90.0 xyz
   end
   begin
      id 22
      name RightHandThumb1
      direction 0.000000 0.000000 1.000000
      length 3.937000
      axis 0.0 0.0 90.0 xyz
      dof rx rz ry
   end
   begin
      id 23
      name LeftUpLeg
      direction 0.000000 -1.000000 0.000000
      length 15.713025
      axis 0.0 0.0 0.0 xyz
      dof rx ry rz
   end
   begin
      id 24
      name LeftLeg
      direction 0.000000 -1.000000 0.000000
      length 14.435119
      axis 0.0 0.0 0.0 xyz
      dof rx ry rz
   end
   begin
      id 25
      name LeftFoot
      direction 0.000000 -0.258819 0.965926
      length 4.938895
      axis 15.0 0.0 0.0 xyz
      dof rx ry rz
   end
   begin
      id 26
      name LeftToeBase
      direction 0.000000 0.000000 1.000000
      length 2.952750
      axis 0.0 0.0 0.0 xyz
      dof rx ry rz
   end
   begin
      id 27
      name RightUpLeg
      direction 0.000000 -1.000000 0.000000
      length 15.713025
      axis 0.0 0.0 0.0 xyz
      dof rx ry rz
   end
   begin
      id 28
      name RightLeg
      direction 0.000000 -1.000000 0.000000
      length 14.435119
      axis 0.0 0.0 0.0 xyz
      dof rx ry rz
   end
   begin
      id 29
      name RightFoot
      direction 0.000000 -0.258819 0.965926
      length 4.938895
      axis 15.0 0.0 0.0 xyz
      dof rx ry rz
   end
   begin
      id 30
      name RightToeBase
      direction 0.000000 0.000000 1.000000
      length 2.952750
      axis 0.0 0.0 0.0 xyz
      dof rx ry rz
   end
:hierarchy
   begin
      root Spine_dum LeftUpLeg_dum RightUpLeg_dum
      Spine_dum Spine
      LeftUpLeg_dum LeftUpLeg
      RightUpLeg_dum RightUpLeg
      Spine Spine_dum1 Spine_dum2 Spine_dum3
      Spine_dum1 Head
      Spine_dum2 LeftShoulder
      Spine_dum3 RightShoulder
      LeftShoulder LeftArm
      LeftArm LeftForeArm
      LeftForeArm LeftHand
      LeftHand LeftHand_dum1 LeftHand_dum2
      LeftHand_dum1 LeftHandThumb1
      RightShoulder RightArm
      RightArm RightForeArm
      RightForeArm RightHand
      RightHand RightHand_dum1 RightHand_dum2
      RightHand_dum1 RightHandThumb1
      LeftUpLeg LeftLeg
      LeftLeg LeftFoot
      LeftFoot LeftToeBase
      RightUpLeg RightLeg
      RightLeg RightFoot
      RightFoot RightToeBase
   end

# File created by Blade
# Date/Time:  Tue Sep 23 19:18:47 2014
# Frame Rate: 120.000 fps
#------------------------------------------------------
:FULLY-SPECIFIED
:DEGREES
211
root 1.878263 33.891191 2.927595 60.409466 29.838563 -24.871434
Spine -59.726227 -15.722353 39.792371
Head -7.872003 -5.957108 28.898251
LeftShoulder -9.013817 35.534244 29.656371
LeftArm 61.425152 -7.169396 -81.895998
LeftForeArm 9.026362 -0.000000 109.490328
LeftHand -58.419374 -0.000000 20.652693
LeftHandThumb1 -26.253704 0.000000 33.147579
RightShoulder -35.853137 -47.358963 16.114454
RightArm 48.687292 46.140118 115.595980
RightForeArm 77.942989 0.000000 37.113514
RightHand 12.012986 -0.000000 32.536264
RightHandThumb1 -24.326973 -0.000000 -32.862282
LeftUpLeg -66.431796 13.069956 19.434975
LeftLeg 5.566530 -0.000000 -0.000000
LeftFoot -5.187460 -6.819009 5.489219
LeftToeBase 1.216465 -0.000000 -0.000000
RightUpLeg -18.456968 7.372244 -22.104966
RightLeg 119.067491 -0.000000 -0.000000
RightFoot 43.881033 5.702033 2.753115
RightToeBase 36.627508 -0.000000 -0.000000
212
root 1.856180 33.875580 2.899711 60.540003 30.031612 -25.003790
Spine -59.644783 -15.662094 39.781900
Head -8.146922 -6.011704 28.798745
LeftShoulder -8.959533 35.439264 29.792448
LeftArm 61.650057 -7.317967 -82.067653
LeftForeArm 9.037205 -0.000000 109.684987
LeftHand -58.538535 -0.000000 20.452045
LeftHandThumb1 -26.253704 0.000000 33.147579
RightShoulder -35.886556 -47.321067 16.061122
RightArm 49.013570 46.582920 116.098756
RightForeArm 76.783390 -0.000000 37.530719
RightHand 11.920902 -0.000000 32.021119
RightHandThumb1 -24.326973 -0.000000 -32.862282
LeftUpLeg -66.505478 12.799467 20.164500
LeftLeg 5.461717 -0.000000 -0.000000
LeftFoot -5.163510 -5.779837 6.372002
LeftToeBase 0.914533 -0.000000 -0.000000
RightUpLeg -18.140861 7.639726 -22.092869
RightLeg 118.578552 -0.000000 -0.000000
RightFoot 43.485096 5.352110 2.233324
RightToeBase 36.887751 -0.000000 -0.000000
213
root 1.833666 33.857204 2.875898 60.591701 30.196433 -25.142330
Spine -59.482534 -15.624072 39.719883
Head -8.479768 -6.084169 28.727792
LeftShoulder -8.893959 35.302214 29.959459
LeftArm 61.839410 -7.439518 -82.285893
LeftForeArm 8.913133 -0.000000 109.866423
LeftHand -58.511155 -0.000000 20.481026
LeftHandThumb1 -26.253704 0.000000 33.147579
RightShoulder -35.915950 -47.113622 15.986055
RightArm 49.082356 47.058581 116.247345
RightForeArm 75.637013 -0.000000 37.897561
RightHand 11.576489 -0.000000 31.661191
RightHandThumb1 -24.326973 -0.000000 -32.862282
LeftUpLeg -66.492373 12.546609 20.887093
LeftLeg 5.369722 -0.000000 -0.000000
LeftFoot -5.112597 -4.839874 6.929336
LeftToeBase 0.460543 -0.000000 -0.000000
RightUpLeg -17.755172 7.913546 -22.071042
RightLeg 118.166342 -0.000000 -0.000000
RightFoot 43.071899 4.869101 1.848400
RightToeBase 36.998588 -0.000000 -0.000000
214
root 1.811192 33.837589 2.848651 60.650535 30.348161 -25.285006
Spine -59.356169 -15.635651 39.755272
Head -8.683465 -6.033068 28.665996
LeftShoulder -8.912330 35.252260 30.101969
LeftArm 62.041926 -7.572786 -82.552927
LeftForeArm 8.853846 -0.000000 110.073991
LeftHand -58.555948 -0.000000 20.210433
LeftHandThumb1 -26.253704 0.000000 33.147579
RightShoulder -35.848716 -47.081167 15.918209
RightArm 49.144172 47.352296 116.146270
RightForeArm 75.175719 -0.000000 38.162374
RightHand 11.348893 -0.000000 31.412518
RightHandThumb1 -24.326973 -0.000000 -32.862282
LeftUpLeg -66.491646 12.288065 21.648169
LeftLeg 5.304370 -0.000000 -0.000000
LeftFoot -5.184338 -3.851491 7.514668
LeftToeBase 0.347424 -0.000000 -0.000000
RightUpLeg -17.398464 8.149438 -22.074373
RightLeg 117.840477 -0.000000 -0.000000
RightFoot 42.714357 4.214419 1.663300
RightToeBase 36.920403 -0.000000 -0.000000
215
root 1.789429 33.823660 2.814017 60.920473 30.492383 -25.435166
Spine -59.384982 -15.489081 39.849257
Head -8.947730 -5.940372 28.546933
LeftShoulder -8.963134 35.224716 30.221972
LeftArm 62.275963 -7.754818 -82.765874
LeftForeArm 8.630939 -0.000000 110.282031
LeftHand -58.592216 -0.000000 20.057819
LeftHandThumb1 -26.253704 0.000000 33.147579
RightShoulder -35.879530 -47.113119 15.890768
RightArm 49.209534 47.492928 115.989157
RightForeArm 74.680247 -0.000000 38.380388
RightHand 11.102585 -0.000000 31.326226
RightHandThumb1 -24.326973 -0.000000 -32.862282
LeftUpLeg -66.725994 12.126842 22.392817
LeftLeg 5.284339 -0.000000 -0.000000
LeftFoot -5.143314 -2.951269 8.169047
LeftToeBase -0.098129 -0.000000 0.000000
RightUpLeg -17.287308 8.289463 -22.106275
RightLeg 117.612300 -0.000000 -0.000000
RightFoot 42.511519 3.692578 1.485319
RightToeBase 36.664843 -0.000000 -0.000000
216
root 1.770000 33.810760 2.778017 61.209463 30.659791 -25.530088
Spine -59.418808 -15.380159 39.943751
Head -9.225814 -5.870883 28.487118
LeftShoulder -9.046359 35.157190 30.332063
LeftArm 62.416938 -7.892202 -82.799203
LeftForeArm 8.423773 -0.000000 110.502902
LeftHand -58.424124 -0.000000 20.135624
LeftHandThumb1 -26.253704 0.000000 33.147579
RightShoulder -35.830686 -47.051756 15.815109
RightArm 48.990791 47.633998 115.443369
RightForeArm 74.878828 -0.000000 38.557086
RightHand 10.745613 -0.000000 31.182682
RightHandThumb1 -24.326973 -0.000000 -32.862282
LeftUpLeg -67.004683 11.942101 23.114401
LeftLeg 5.303697 -0.000000 -0.000000
LeftFoot -5.143610 -2.101798 8.547225
LeftToeBase -0.146852 -0.000000 0.000000
RightUpLeg -17.146902 8.334214 -22.135682
RightLeg 117.393262 -0.000000 -0.000000
RightFoot 42.466778 3.265860 1.335336
RightToeBase 36.566355 -0.000000 -0.000000
217
root 1.753069 33.800074 2.744683 61.537342 30.750461 -25.596877
Spine -59.493847 -15.235316 39.974451
Head -9.441902 -5.792574 28.414727
LeftShoulder -9.083411 35.110762 30.378606
LeftArm 62.699662 -8.080260 -83.032588
LeftForeArm 8.487586 -0.000000 110.737420
LeftHand -58.858444 -0.000000 19.413724
LeftHandThumb1 -26.253704 0.000000 33.147579
RightShoulder -36.001542 -47.197929 16.024686
RightArm 49.224629 47.659620 115.273305
RightForeArm 74.672894 -0.000000 38.759963
RightHand 10.698972 -0.000000 30.983956
RightHandThumb1 -24.326973 -0.000000 -32.862282
LeftUpLeg -67.280821 11.807200 23.741777
LeftLeg 5.317503 -0.000000 -0.000000
LeftFoot -5.166502 -1.369113 8.820387
LeftToeBase -0.099072 -0.000000 0.000000
RightUpLeg -17.059206 8.359804 -22.243219
RightLeg 117.169928 -0.000000 -0.000000
RightFoot 42.756734 2.887695 1.365338
RightToeBase 36.405423 -0.000000 -0.000000
